<?xml version="1.0" encoding="UTF-8"?>
<svg xmlns="http://www.w3.org/2000/svg" viewBox="0 0 24 24" width="24px" height="24px">
<g id="surface39949129">
<path style=" stroke:none;fill-rule:nonzero;fill:rgb(100%,100%,100%);fill-opacity:1;" d="M 9.664062 2 L 9.175781 4.523438 C 8.351562 4.835938 7.59375 5.269531 6.929688 5.816406 L 4.507812 4.976562 L 2.171875 9.019531 L 4.113281 10.707031 C 4.039062 11.167969 4 11.59375 4 12 C 4 12.410156 4.039062 12.832031 4.113281 13.292969 L 2.171875 14.980469 L 4.507812 19.023438 L 6.929688 18.1875 C 7.59375 18.730469 8.351562 19.164062 9.175781 19.476562 L 9.664062 22 L 14.332031 22 L 14.824219 19.476562 C 15.648438 19.164062 16.40625 18.730469 17.066406 18.1875 L 19.492188 19.023438 L 21.824219 14.980469 L 19.886719 13.292969 C 19.960938 12.832031 20 12.40625 20 12 C 20 11.59375 19.960938 11.167969 19.886719 10.710938 L 19.886719 10.707031 L 21.828125 9.019531 L 19.492188 4.976562 L 17.070312 5.8125 C 16.40625 5.269531 15.648438 4.835938 14.824219 4.523438 L 14.332031 2 Z M 11.3125 4 L 12.683594 4 L 13.074219 6 L 14.117188 6.394531 C 14.746094 6.632812 15.3125 6.957031 15.800781 7.359375 L 16.664062 8.066406 L 18.585938 7.40625 L 19.269531 8.589844 L 17.734375 9.925781 L 17.910156 11.027344 L 17.910156 11.03125 C 17.972656 11.402344 18 11.71875 18 12 C 18 12.28125 17.972656 12.597656 17.910156 12.96875 L 17.734375 14.070312 L 19.269531 15.40625 L 18.582031 16.59375 L 16.664062 15.933594 L 15.796875 16.640625 C 15.308594 17.042969 14.746094 17.367188 14.117188 17.605469 L 14.113281 17.605469 L 13.070312 18 L 12.683594 20 L 11.3125 20 L 10.925781 18 L 9.882812 17.605469 C 9.253906 17.367188 8.6875 17.042969 8.199219 16.640625 L 7.335938 15.933594 L 5.414062 16.59375 L 4.726562 15.40625 L 6.265625 14.070312 L 6.085938 12.972656 C 6.027344 12.597656 6 12.28125 6 12 C 6 11.71875 6.027344 11.402344 6.085938 11.027344 L 6.265625 9.929688 L 4.726562 8.59375 L 5.414062 7.40625 L 7.335938 8.066406 L 8.199219 7.359375 C 8.6875 6.957031 9.253906 6.632812 9.882812 6.394531 L 10.925781 6 Z M 12 8 C 9.804688 8 8 9.804688 8 12 C 8 14.195312 9.804688 16 12 16 C 14.195312 16 16 14.195312 16 12 C 16 9.804688 14.195312 8 12 8 Z M 12 10 C 13.113281 10 14 10.886719 14 12 C 14 13.113281 13.113281 14 12 14 C 10.886719 14 10 13.113281 10 12 C 10 10.886719 10.886719 10 12 10 Z M 12 10 "/>
</g>
</svg>
